<?xml version="1.0" encoding="UTF-8" standalone="no"?>
<!-- Created with Inkscape (http://www.inkscape.org/) -->

<svg
     xmlns:dc="http://purl.org/dc/elements/1.1/"
     xmlns:cc="http://creativecommons.org/ns#"
     xmlns:rdf="http://www.w3.org/1999/02/22-rdf-syntax-ns#"
     xmlns:svg="http://www.w3.org/2000/svg"
     xmlns="http://www.w3.org/2000/svg"
     xmlns:xlink="http://www.w3.org/1999/xlink"
     xmlns:sodipodi="http://sodipodi.sourceforge.net/DTD/sodipodi-0.dtd"
     xmlns:inkscape="http://www.inkscape.org/namespaces/inkscape"
     width="744.09448"
     height="744.09448"
     id="svg2"
     version="1.1"
     inkscape:version="0.48.2 r9819"
     sodipodi:docname="The_Kestrel_Logo_FINAL.svg"
     inkscape:export-filename="/Users/ryuutei/The_Kestrel_Logo_FINAL-64.png"
     inkscape:export-xdpi="7.7399998"
     inkscape:export-ydpi="7.7399998">
    <defs
         id="defs4" />
    <sodipodi:namedview
         id="base"
         pagecolor="#ffffff"
         bordercolor="#666666"
         borderopacity="1.0"
         inkscape:pageopacity="0.0"
         inkscape:pageshadow="2"
         inkscape:zoom="0.81346638"
         inkscape:cx="358.24508"
         inkscape:cy="352.60598"
         inkscape:document-units="px"
         inkscape:current-layer="layer3"
         showgrid="false"
         showguides="true"
         inkscape:guide-bbox="true"
         inkscape:snap-global="false"
         inkscape:snap-object-midpoints="true"
         inkscape:object-nodes="true"
         inkscape:snap-nodes="true"
         inkscape:snap-to-guides="true"
         inkscape:window-width="1465"
         inkscape:window-height="1029"
         inkscape:window-x="-1"
         inkscape:window-y="0"
         inkscape:window-maximized="0"
         fit-margin-top="0"
         fit-margin-left="0"
         fit-margin-right="0"
         fit-margin-bottom="0"
         units="mm" />
    <metadata
         id="metadata7">
        <rdf:RDF>
            <cc:Work
                 rdf:about="">
                <dc:format>image/svg+xml</dc:format>
                <dc:type
                     rdf:resource="http://purl.org/dc/dcmitype/StillImage" />
                <dc:title></dc:title>
            </cc:Work>
        </rdf:RDF>
    </metadata>
    <g
         inkscape:groupmode="layer"
         id="layer6"
         inkscape:label="Colors"
         style="display:inline"
         transform="translate(-49.112352,-175.64414)"
         sodipodi:insensitive="true">
        <path
             transform="matrix(1.144574,0,0,1.186395,-13.487614,-111.20683)"
             d="m 642.91016,535.81018 a 262.82492,262.82492 0 1 1 -525.64985,0 262.82492,262.82492 0 1 1 525.64985,0 z"
             sodipodi:ry="262.82492"
             sodipodi:rx="262.82492"
             sodipodi:cy="535.81018"
             sodipodi:cx="380.08524"
             id="path4002"
             style="fill:#ff7f00;fill-opacity:1;fill-rule:evenodd;stroke:none;display:inline"
             sodipodi:type="arc" />
        <path
             sodipodi:type="arc"
             style="fill:#00c2ff;fill-opacity:1;fill-rule:evenodd;stroke:none;display:inline"
             id="path3998"
             sodipodi:cx="380.08524"
             sodipodi:cy="535.81018"
             sodipodi:rx="262.82492"
             sodipodi:ry="262.82492"
             d="m 642.91016,535.81018 a 262.82492,262.82492 0 1 1 -525.64985,0 262.82492,262.82492 0 1 1 525.64985,0 z"
             transform="matrix(0.97027049,0,0,1.0057227,52.762578,-14.400769)" />
    </g>
    <g
         inkscape:groupmode="layer"
         id="layer3"
         inkscape:label="Shield"
         style="display:inline"
         transform="translate(-49.112352,-175.64414)"
         sodipodi:insensitive="true">
        <path
             sodipodi:type="star"
             style="fill:#ffffff;fill-opacity:1;stroke:none;display:inline"
             id="path3990"
             sodipodi:sides="50"
             sodipodi:cx="377.40887"
             sodipodi:cy="526.20703"
             sodipodi:r1="239.82339"
             sodipodi:r2="119.9117"
             sodipodi:arg1="1.5707963"
             sodipodi:arg2="1.6336282"
             inkscape:flatsided="false"
             inkscape:rounded="0"
             inkscape:randomized="0"
             d="m 377.40888,766.03043 -7.52933,-120.14832 -22.52851,118.25724 7.58862,-120.14459 -37.17243,114.50117 22.58689,-118.2461 -51.23012,108.93936 37.22895,-114.48281 -64.47987,101.6595 51.28389,-108.91406 -76.71274,92.77642 64.53005,-101.62766 -87.73581,82.43019 76.75854,-92.73854 -97.37523,70.78399 87.77649,-82.38686 -105.47898,58.02148 97.41016,-70.73591 -111.91927,44.34394 105.50762,-57.9694 -116.59453,29.96707 111.94115,-44.28868 -119.43101,15.1176 116.60931,-29.90951 -120.384,0.0297 119.43846,-15.05864 -119.43846,-15.05863 120.384,0.0297 -116.60931,-29.9095 119.43101,15.11759 -111.94115,-44.28867 116.59453,29.96706 -105.50762,-57.96939 111.91927,44.34393 -97.41017,-70.73589 105.47899,58.02146 -87.7765,-82.38685 97.37524,70.78397 -76.75855,-92.73852 87.73582,82.43018 -64.53007,-101.62765 76.71277,92.77641 -51.28391,-108.91405 64.47989,101.65949 -37.22897,-114.4828 51.23013,108.93935 -22.5869,-118.2461 37.17245,114.50117 -7.58864,-120.14458 22.52853,118.25723 7.52931,-120.14831 7.52932,120.14831 22.52852,-118.25724 -7.58862,120.14459 37.17243,-114.50117 -22.58689,118.2461 51.23012,-108.93935 -37.22896,114.4828 64.47988,-101.65949 -51.28389,108.91405 76.71274,-92.77641 -64.53005,101.62765 87.73581,-82.43018 -76.75854,92.73853 97.37523,-70.78399 -87.77649,82.38687 105.47898,-58.02149 -97.41016,70.73591 111.91927,-44.34394 -105.50762,57.9694 116.59452,-29.96707 -111.94114,44.28869 119.43101,-15.11761 -116.60931,29.90951 120.384,-0.0297 -119.43846,15.05864 119.43846,15.05863 -120.384,-0.0297 116.60931,29.9095 -119.43102,-15.11759 111.94116,44.28867 -116.59453,-29.96706 105.50762,57.96939 -111.91928,-44.34393 97.41018,70.7359 -105.479,-58.02147 87.77651,82.38685 -97.37524,-70.78397 76.75855,92.73852 -87.73582,-82.43018 64.53006,101.62765 -76.71276,-92.7764 51.28391,108.91404 -64.47989,-101.65949 37.22897,114.4828 -51.23014,-108.93935 22.58691,118.2461 -37.17245,-114.50117 7.58864,120.14459 -22.52853,-118.25724 z"
             transform="matrix(0.9683786,0,0,1,55.684915,-1.7313362)"
             inkscape:label="#backLight" />
        <path
             style="fill:#000000;fill-opacity:1;fill-rule:evenodd;stroke:none"
             d="m 421.17522,208.83116 c -168.18292,0 -304.53125,141.32818 -304.53125,315.65625 0,174.32807 136.34833,315.625 304.53125,315.625 168.18292,0 304.5,-141.29693 304.5,-315.625 0,-174.32807 -136.31708,-315.65625 -304.5,-315.65625 z m 0,6.46875 c 164.72862,0 298.25,138.43995 298.25,309.1875 0,170.74755 -133.52138,309.15625 -298.25,309.15625 -164.72862,0 -298.28125,-138.4087 -298.28125,-309.15625 0,-170.74755 133.55263,-309.1875 298.28125,-309.1875 z m 0,15.84375 c -156.28475,0 -283,131.34859 -283,293.34375 0,161.99516 126.71525,293.3125 283,293.3125 156.28475,0 282.96875,-131.31734 282.96875,-293.3125 0,-161.99516 -126.684,-293.34375 -282.96875,-293.34375 z m 0,5.0625 c 153.59806,0 278.09375,129.07095 278.09375,288.28125 0,159.2103 -124.49569,288.25 -278.09375,288.25 -153.59806,0 -278.125,-129.0397 -278.125,-288.25 0,-159.2103 124.52694,-288.28125 278.125,-288.28125 z m 0,15.84375 c -145.1542,0 -262.84375,121.97959 -262.84375,272.4375 0,150.45791 117.68955,272.40625 262.84375,272.40625 145.1542,0 262.8125,-121.94834 262.8125,-272.40625 0,-150.45791 -117.6583,-272.4375 -262.8125,-272.4375 z m 0,16.4375 c 136.39596,0 246.96875,114.62034 246.96875,256 0,141.37966 -110.57279,255.96875 -246.96875,255.96875 -136.39596,0 -246.96875,-114.58909 -246.96875,-255.96875 0,-141.37966 110.57279,-256 246.96875,-256 z m 0,5.03125 c -133.70927,0 -242.125,112.37394 -242.125,250.96875 0,138.59481 108.41573,250.9375 242.125,250.9375 133.70927,0 242.09375,-112.34269 242.09375,-250.9375 0,-138.59481 -108.38448,-250.96875 -242.09375,-250.96875 z m 0,5.78125 c 130.63878,0 236.53125,109.77538 236.53125,245.1875 0,135.41212 -105.89247,245.1875 -236.53125,245.1875 -130.63878,0 -236.5625,-109.77538 -236.5625,-245.1875 0,-135.41212 105.92372,-245.1875 236.5625,-245.1875 z"
             id="path3110"
             inkscape:connector-curvature="0" />
        <g
             id="g3931"
             inkscape:label="#Triangle"
             transform="translate(43.753343,-1.7313362)">
            <path
                 style="fill:#ffffff;fill-opacity:1;stroke:none;display:inline"
                 d="M 377.40625,179.10689 117.77782,722.55478 377.40625,652.50007 637.03468,722.55478 377.40625,179.10689 z"
                 id="path3929"
                 inkscape:connector-curvature="0" />
            <path
                 inkscape:connector-curvature="0"
                 id="path3093"
                 d="M 377.40625,188.90625 124.375,715.6875 377.40625,647.78125 630.4375,715.6875 377.40625,188.90625 z"
                 style="fill:#000000;fill-opacity:1;stroke:none;display:inline" />
        </g>
        <g
             style="display:inline"
             id="g4111"
             inkscape:label="#Kestrel_Full"
             transform="translate(44.188653,-1.7313362)">
            <title
                 id="title4119">The Kestrel</title>
            <g
                 id="g4107">
                <use
                     x="0"
                     y="0"
                     xlink:href="#path4103"
                     id="use4105"
                     transform="matrix(-1,0,0,1,753.94188,0)"
                     width="744.09448"
                     height="1052.3622" />
                <path
                     style="fill:#000000;fill-opacity:1;stroke:none"
                     d="m 376.97094,719.31392 11.11771,9.713 30.86578,0 20.2894,-31.51331 -1.51092,8.84963 70.36535,0 -5.18027,-6.47534 2.59014,-4.31689 5.18027,0.86338 0,-7.12288 -1.9426,-2.59013 3.66936,-5.18027 0.21584,-26.76474 -3.66936,-2.80598 0,-9.92885 -6.47534,-4.96443 0,-96.2667 -20.28939,-15.32497 0,-28.0598 -18.77849,-14.89328 -7.7704,0 -26.54889,-53.96116 -10.57639,-121.52053 -23.95875,-28.92318 -17.59305,0 z"
                     id="path4103"
                     inkscape:connector-curvature="0" />
            </g>
            <g
                 id="g4086">
                <path
                     inkscape:connector-curvature="0"
                     style="fill:#ffffff;fill-opacity:1;stroke:none"
                     d="m 376.96875,284.53125 0,8.78125 13.6875,0 15.6875,20.40625 0.3125,66.21875 11,11.59375 -6.90625,-82.84375 -19.46875,-24.15625 -14.3125,0 z m 0,13.5 0,173.84375 19.65625,0 5.34375,-28.875 0,-127.71875 -11.9375,-17.25 -13.0625,0 z m 4.53125,10 11.21875,0 3.46875,4.78125 1.125,6.3125 -5.3125,0 -3.5,-3.53125 -7,0 0,-7.5625 z m 25.46875,80.375 0,56.15625 -5.625,28.5625 14.40625,13.5 33.59375,0 -27.3125,-56.5 -3.4375,-28.875 -11.625,-12.84375 z m -30,87.75 0,32.8125 17.1875,0 0,-32.8125 -17.1875,0 z m 21.21875,1.96875 0,35.46875 -21.21875,0 0,132.40625 11.1875,0 4.375,9.75 10.6875,0 21.96875,-43 0,-120.1875 -12.5625,0 -14.4375,-14.4375 z m 53.65625,12.25 0,63.375 10.34375,0 12.25,-11.90625 0,-41.125 -12.875,-10.34375 -9.71875,0 z M 430.5,492.25 l 0,119.25 -22.90625,46.4375 21.65625,33.5625 20.71875,-85.96875 16.3125,0 0,-31.6875 -18.8125,-5.65625 0,-75.9375 -16.96875,0 z m 48.03125,41.125 0,12.53125 -13.8125,13.5 -11.625,0 -1.25,5.34375 18.21875,4.6875 0,41.75 -16.03125,0 -7.21875,32.625 48.96875,0 -0.625,-99.46875 -16.625,-10.96875 z m -32.65625,113.90625 0,5 52.71875,0 0,-5 -52.71875,0 z m -68.90625,3.4375 0,34.84375 9.3125,0 0,-32.65625 -9.3125,-2.1875 z m 66.09375,5.96875 0,30.125 58.375,0 0,-30.125 -58.375,0 z m -51.46875,4.375 0,24.1875 5.34375,0 10.34375,23.84375 -5.3125,0 -7.53125,-18.53125 -17.46875,0 0,15.0625 15.5625,11.3125 22.28125,0 12.5625,-20.40625 -24.46875,-35.46875 -11.3125,0 z m 57.28125,28.875 0,4.09375 46.75,0 0,-4.09375 -46.75,0 z"
                     id="path4046" />
                <use
                     x="0"
                     y="0"
                     xlink:href="#path4046"
                     id="use4084"
                     transform="matrix(-1,0,0,1,753.93969,0)"
                     width="744.09448"
                     height="1052.3622" />
            </g>
        </g>
        <g
             id="g4163"
             inkscape:label="#FullOrbit"
             transform="translate(41.462792,-1.7313362)">
            <g
                 inkscape:label="#orbit"
                 id="g4145">
                <path
                     style="fill:#ffffff;fill-opacity:1;stroke:none"
                     d="m 49.125,517.625 c 0,63.35697 148.01277,114.6875 330.59375,114.6875 182.58098,0 330.5625,-51.33053 330.5625,-114.6875 l -13.21875,0 c -1.89268,56.72148 -143.22832,102.53125 -317.34375,102.53125 -174.11543,0 -315.481902,-45.80977 -317.375,-102.53125 l -13.21875,0 z"
                     id="path3952"
                     inkscape:connector-curvature="0" />
                <path
                     style="fill:#000000;fill-opacity:1;stroke:none"
                     d="m 139.75,437.34375 c -56.166199,19.77191 -90.625,46.47949 -90.625,75.875 0,60.92779 148.01277,110.3125 330.59375,110.3125 182.58098,0 330.5625,-49.38471 330.5625,-110.3125 0,-29.24811 -34.12114,-55.85187 -89.78125,-75.59375 1.22505,3.57375 2.38956,7.20112 3.46875,10.84375 45.66404,17.2674 73.125,39.45325 73.125,63.65625 0,55.05768 -142.08107,99.6875 -317.375,99.6875 -175.29393,0 -317.40625,-44.62982 -317.40625,-99.6875 0,-24.34922 27.801021,-46.65695 73.96875,-63.96875 1.08418,-3.64291 2.2386,-7.23865 3.46875,-10.8125 z"
                     id="path3944"
                     inkscape:connector-curvature="0" />
            </g>
            <g
                 inkscape:label="#satellite"
                 id="g3967">
                <path
                     sodipodi:type="arc"
                     style="fill:#000000;fill-opacity:1;stroke:none"
                     id="path3963"
                     sodipodi:cx="83.186348"
                     sodipodi:cy="469.75684"
                     sodipodi:rx="34.073994"
                     sodipodi:ry="34.073994"
                     d="m 117.26034,469.75684 a 34.073994,34.073994 0 1 1 -68.147986,0 34.073994,34.073994 0 1 1 68.147986,0 z"
                     transform="translate(-2.2785645e-6,5.1009226)" />
                <path
                     transform="matrix(0.55089597,0,0,0.55089597,44.828529,210.24098)"
                     d="m 117.26034,469.75684 a 34.073994,34.073994 0 1 1 -68.147986,0 34.073994,34.073994 0 1 1 68.147986,0 z"
                     sodipodi:ry="34.073994"
                     sodipodi:rx="34.073994"
                     sodipodi:cy="469.75684"
                     sodipodi:cx="83.186348"
                     id="path3965"
                     style="fill:#ffffff;fill-opacity:1;stroke:none"
                     sodipodi:type="arc" />
            </g>
        </g>
        <g
             style="display:inline"
             id="g4038"
             inkscape:label="#StarFull"
             transform="translate(41.462792,-1.7313362)">
            <g
                 transform="translate(0,-1.1305996)"
                 id="g4018">
                <path
                     sodipodi:type="star"
                     style="fill:#000000;fill-opacity:1;stroke:none"
                     id="path4004"
                     sodipodi:sides="4"
                     sodipodi:cx="571.32965"
                     sodipodi:cy="354.40536"
                     sodipodi:r1="147.04752"
                     sodipodi:r2="27.93903"
                     sodipodi:arg1="1.5707963"
                     sodipodi:arg2="2.3561945"
                     inkscape:flatsided="false"
                     inkscape:rounded="0"
                     inkscape:randomized="0"
                     d="M 571.32965,501.45288 551.57377,374.16124 424.28214,354.40537 551.57377,334.64949 571.32965,207.35785 591.08553,334.64949 718.37717,354.40536 591.08553,374.16124 z"
                     transform="matrix(0.78471729,0,0,1.0768867,122.9974,-24.987854)" />
                <path
                     transform="matrix(0.40920973,0.40920973,-0.56156851,0.56156851,536.5589,-76.149975)"
                     d="M 571.32965,501.45288 551.57377,374.16124 424.28214,354.40537 551.57377,334.64949 571.32965,207.35785 591.08553,334.64949 718.37717,354.40536 591.08553,374.16124 z"
                     inkscape:randomized="0"
                     inkscape:rounded="0"
                     inkscape:flatsided="false"
                     sodipodi:arg2="2.3561945"
                     sodipodi:arg1="1.5707963"
                     sodipodi:r2="27.93903"
                     sodipodi:r1="147.04752"
                     sodipodi:cy="354.40536"
                     sodipodi:cx="571.32965"
                     sodipodi:sides="4"
                     id="path4008"
                     style="fill:#000000;fill-opacity:1;stroke:none"
                     sodipodi:type="star" />
            </g>
            <g
                 style="fill:#ffffff;fill-opacity:1"
                 transform="translate(0,-1.1305996)"
                 id="g4014">
                <path
                     transform="matrix(0.78471729,0,0,1.0768867,122.9974,-24.987854)"
                     d="M 571.32965,501.45288 560.93182,364.80319 424.28214,354.40537 560.93182,344.00754 571.32965,207.35785 581.72748,344.00754 718.37717,354.40536 581.72748,364.80319 z"
                     inkscape:randomized="0"
                     inkscape:rounded="0"
                     inkscape:flatsided="false"
                     sodipodi:arg2="2.3561945"
                     sodipodi:arg1="1.5707963"
                     sodipodi:r2="14.704752"
                     sodipodi:r1="147.04752"
                     sodipodi:cy="354.40536"
                     sodipodi:cx="571.32965"
                     sodipodi:sides="4"
                     id="path4006"
                     style="fill:#ffffff;fill-opacity:1;stroke:none"
                     sodipodi:type="star" />
                <path
                     sodipodi:type="star"
                     style="fill:#ffffff;fill-opacity:1;stroke:none"
                     id="path4010"
                     sodipodi:sides="4"
                     sodipodi:cx="571.32965"
                     sodipodi:cy="354.40536"
                     sodipodi:r1="147.04752"
                     sodipodi:r2="14.704752"
                     sodipodi:arg1="1.5707963"
                     sodipodi:arg2="2.3561945"
                     inkscape:flatsided="false"
                     inkscape:rounded="0"
                     inkscape:randomized="0"
                     d="M 571.32965,501.45288 560.93182,364.80319 424.28214,354.40537 560.93182,344.00754 571.32965,207.35785 581.72748,344.00754 718.37717,354.40536 581.72748,364.80319 z"
                     transform="matrix(0.40920973,0.40920973,-0.56156851,0.56156851,536.5589,-76.149975)" />
            </g>
        </g>
    </g>
    <g
         inkscape:groupmode="layer"
         id="layer7"
         inkscape:label="Banner"
         style="display:inline"
         transform="translate(-49.112352,-175.64414)"
         sodipodi:insensitive="true">
        <g
             style="display:inline"
             id="g4399"
             transform="translate(44.190843,-1.7313362)">
            <rect
                 transform="matrix(0.70710678,0.70710678,-0.70710678,0.70710678,0,0)"
                 y="246.02936"
                 x="779.14368"
                 height="137.76685"
                 width="137.76685"
                 id="rect4187"
                 style="fill:#000000;fill-opacity:1;stroke:none;display:inline" />
            <g
                 inkscape:label="#Banner"
                 id="g4347"
                 style="display:inline">
                <path
                     style="fill:#ffffff;fill-opacity:1;fill-rule:evenodd;stroke:#000000;stroke-width:9;stroke-miterlimit:4;stroke-opacity:1;stroke-dasharray:none;display:inline"
                     d="m 148.125,738.09375 -6.125,51.875 -51.09375,0.5625 c 32.74793,41.30391 73.01045,75.35452 118.46875,99.65625 l 45.75,-66.65625 c -41.35191,-19.51193 -77.86729,-48.90719 -107,-85.4375 z m 457.6875,0 c -29.13271,36.53031 -65.64809,65.92557 -107,85.4375 l 45.75,66.65625 c 45.4583,-24.30173 85.72082,-58.35234 118.46875,-99.65625 l -51.09375,-0.5625 -6.125,-51.875 z"
                     id="path4191"
                     inkscape:connector-curvature="0" />
                <path
                     style="fill:#000000;fill-opacity:1;stroke:#000000;stroke-width:9;stroke-linejoin:bevel;stroke-miterlimit:4;stroke-opacity:1;stroke-dasharray:none"
                     d="M 187.9375,777.84375 162,807.21875 c 10.76942,41.07223 33.7414,69.36366 47.375,82.96875 19.66688,-28.25081 45.75,-66.65625 45.75,-66.65625 l -67.1875,-45.6875 z m 378.0625,0 -67.1875,45.6875 c 0,0 26.08312,38.40544 45.75,66.65625 13.6336,-13.60509 36.60558,-41.89652 47.375,-82.96875 L 566,777.84375 z"
                     id="path4218"
                     inkscape:connector-curvature="0" />
                <path
                     style="fill:#ffffff;fill-opacity:1;fill-rule:evenodd;stroke:#000000;stroke-width:9;stroke-miterlimit:4;stroke-opacity:1;stroke-dasharray:none;display:inline"
                     d="m 214.28125,739.71875 -51.0625,66.0625 c 58.12735,46.79722 131.21695,74.6875 210.625,74.6875 1.04207,0 2.08512,-0.0213 3.125,-0.0312 1.03988,0.01 2.08293,0.0312 3.125,0.0312 79.40805,0 152.49765,-27.89028 210.625,-74.6875 l -51.0625,-66.0625 c -44.19622,34.86715 -99.51826,55.625 -159.5625,55.625 -1.04715,0 -2.08075,-0.0187 -3.125,-0.0312 -1.04425,0.0125 -2.07785,0.0312 -3.125,0.0312 -60.04424,0 -115.36628,-20.75785 -159.5625,-55.625 z"
                     id="path4205"
                     inkscape:connector-curvature="0" />
            </g>
            <g
                 id="g4380">
                <g
                     id="g4366"
                     inkscape:label="#Kestrel_curved"
                     transform="translate(-5.2868747,0)">
                    <path
                         sodipodi:nodetypes="ccccccccccccc"
                         inkscape:connector-curvature="0"
                         id="path4249"
                         d="m 239.54778,779.37499 11.95713,5.87723 -7.29587,12.36245 18.44234,-7.7012 10.13315,8.10652 -20.8743,8.91718 5.26924,24.52223 -11.95712,-4.05326 -2.63463,-17.42903 -5.47189,1.82397 -4.05326,9.72783 -9.9305,-5.4719 z"
                         style="fill:#000000;fill-opacity:1;stroke:none" />
                    <path
                         sodipodi:nodetypes="ccccccccccccc"
                         inkscape:connector-curvature="0"
                         id="path4251"
                         d="m 281.29638,800.45195 -10.33581,37.898 33.84473,9.3225 1.82397,-9.72783 -22.90093,-5.87723 1.41864,-6.28255 17.0237,5.06657 1.82397,-8.51184 -15.80772,-4.05326 1.01332,-5.06658 21.68494,5.26923 2.63463,-9.93049 z"
                         style="fill:#000000;fill-opacity:1;stroke:none" />
                    <path
                         inkscape:connector-curvature="0"
                         id="path4255"
                         d="m 362.96961,815.44902 35.26338,0 0,10.94381 -11.75446,0 0,30.60212 -9.50759,0 0,-30.60212 -14.20399,0 z"
                         style="fill:#000000;fill-opacity:1;stroke:none" />
                    <path
                         id="path4257"
                         d="m 433.09375,811.5625 c -1.03251,-0.0293 -2.11002,0.06 -3.25,0.25 -18.23968,3.03995 -21.6875,3.84375 -21.6875,3.84375 l 6.09375,38.90625 11.125,-1.8125 -2.625,-13.59375 14.40625,13.1875 13.375,-1.84375 c 0,0 -6.49553,-8.29326 -18.25,-13.5625 19.37966,-1.32997 16.3002,-24.93563 0.8125,-25.375 z m -1.96875,10.71875 c 5.08558,-0.0276 6.32434,4.12766 -0.0625,4.53125 l -7.09375,1.1875 -2.84375,5.5 -2.03125,-9.75 c 0,0 4.27301,-0.66322 10.96875,-1.40625 0.37203,-0.0413 0.72346,-0.0607 1.0625,-0.0625 z"
                         style="fill:#000000;fill-opacity:1;stroke:none"
                         inkscape:connector-curvature="0" />
                    <path
                         sodipodi:nodetypes="ccccccccccccc"
                         inkscape:connector-curvature="0"
                         id="path4259"
                         d="m 455.18132,808.76113 13.7811,37.898 31.41278,-12.36245 -3.64794,-8.91717 -21.27963,7.90386 -1.82396,-4.86391 17.22636,-6.0799 -3.24261,-9.11983 -17.83435,6.28255 -1.82397,-4.25592 22.29294,-7.7012 -3.64794,-9.72783 z"
                         style="fill:#000000;fill-opacity:1;stroke:none" />
                    <path
                         sodipodi:nodetypes="ccccccc"
                         inkscape:connector-curvature="0"
                         id="path4261"
                         d="m 497.13259,793.5614 19.25299,35.66871 29.58881,-17.42902 -5.26924,-8.51186 -19.86098,10.94381 -13.57843,-26.75153 z"
                         style="fill:#000000;fill-opacity:1;stroke:none" />
                    <path
                         sodipodi:nodetypes="csscccssccc"
                         inkscape:connector-curvature="0"
                         id="path4265"
                         d="m 338.04205,813.21972 c -22.49561,-0.40532 -23.00626,25.16019 -0.20266,24.7249 10.04054,-0.19166 9.92705,5.79062 1.21598,4.86391 l -19.05033,-2.02663 -0.20266,9.9305 21.68494,2.43195 c 19.05033,2.02664 23.64918,-24.14057 -3.64793,-24.1169 -8.37799,0.007 -7.56623,-7.28167 1.21597,-6.0799 l 19.253,2.63463 0.20267,-9.52517 z"
                         style="fill:#000000;fill-opacity:1;stroke:none" />
                </g>
                <g
                     id="g4375"
                     inkscape:label="#the"
                     transform="translate(-1.51337,0)">
                    <path
                         sodipodi:nodetypes="ccccccccc"
                         inkscape:connector-curvature="0"
                         id="path4268"
                         d="m 358.96424,762.9101 7.52163,0 0,1.49615 -2.81554,0 0,18.66326 -1.70221,0 0,-18.66326 -3.00388,0 z"
                         style="fill:#ffffff;fill-opacity:1;stroke:none" />
                    <path
                         sodipodi:nodetypes="ccccccccccccc"
                         inkscape:connector-curvature="0"
                         id="path4274"
                         d="m 375.5,762.90625 0,20.16326 1.5,0 0,-9.41326 4.5,0 0,9.41326 1.5,0 0,-20.16326 -1.5,0 0,9.34375 -4.5,0 0,-9.34375 z"
                         style="fill:#ffffff;fill-opacity:1;stroke:none" />
                    <path
                         id="path4283"
                         d="m 391.96875,762.84375 0,9.34375 0,1.53125 0,9.34375 6.03125,-0.0312 0,-1.5 -4.53125,0 0,-7.75 1.53125,0 0,-0.0625 0,-1.53125 0,-0.0312 -1.53125,0 0,-7.75 4.53125,0 0,-1.5 -6.03125,-0.0625 z"
                         style="fill:#ffffff;fill-opacity:1;stroke:none"
                         inkscape:connector-curvature="0" />
                </g>
            </g>
        </g>
    </g>
    <g
         inkscape:groupmode="layer"
         id="layer9"
         inkscape:label="Hi-quality"
         style="display:inline"
         transform="translate(-49.112352,-175.64414)"
         sodipodi:insensitive="true">
        <path
             sodipodi:type="star"
             style="fill:#ffffff;fill-opacity:1;stroke:none"
             id="path4439"
             sodipodi:sides="4"
             sodipodi:cx="428.59543"
             sodipodi:cy="191.06076"
             sodipodi:r1="16.501549"
             sodipodi:r2="6.6006198"
             sodipodi:arg1="0.95054684"
             sodipodi:arg2="1.735945"
             inkscape:flatsided="false"
             inkscape:rounded="0"
             inkscape:randomized="0"
             d="m 438.18676,204.48862 -10.67647,-6.91705 -12.34272,3.08052 6.91705,-10.67646 -3.08052,-12.34273 10.67646,6.91705 12.34273,-3.08052 -6.91705,10.67647 z"
             transform="matrix(0.30612248,0,0,0.30612248,296.8429,185.13284)"
             inkscape:transform-center-x="-1.6746762" />
        <path
             inkscape:transform-center-x="-1.0195948"
             transform="matrix(0.18637635,0.24284734,-0.24284734,0.18637635,380.23302,119.70125)"
             d="m 438.18676,204.48862 -10.67647,-6.91705 -12.34272,3.08052 6.91705,-10.67646 -3.08052,-12.34273 10.67646,6.91705 12.34273,-3.08052 -6.91705,10.67647 z"
             inkscape:randomized="0"
             inkscape:rounded="0"
             inkscape:flatsided="false"
             sodipodi:arg2="1.735945"
             sodipodi:arg1="0.95054684"
             sodipodi:r2="6.6006198"
             sodipodi:r1="16.501549"
             sodipodi:cy="191.06076"
             sodipodi:cx="428.59543"
             sodipodi:sides="4"
             id="path4441"
             style="fill:#ffffff;fill-opacity:1;stroke:none"
             sodipodi:type="star"
             inkscape:transform-center-y="1.3285231" />
        <path
             sodipodi:type="star"
             style="fill:#ffffff;fill-opacity:1;stroke:none"
             id="path4443"
             sodipodi:sides="4"
             sodipodi:cx="428.59543"
             sodipodi:cy="191.06076"
             sodipodi:r1="16.501549"
             sodipodi:r2="6.6006198"
             sodipodi:arg1="0.95054684"
             sodipodi:arg2="1.735945"
             inkscape:flatsided="false"
             inkscape:rounded="0"
             inkscape:randomized="0"
             d="m 438.18676,204.48862 -10.67647,-6.91705 -12.34272,3.08052 6.91705,-10.67646 -3.08052,-12.34273 10.67646,6.91705 12.34273,-3.08052 -6.91705,10.67647 z"
             transform="matrix(0.27753095,0.12918028,-0.12918028,0.27753095,270.12131,244.27604)" />
        <path
             transform="matrix(0.15645578,0.26312081,-0.26312081,0.15645578,336.38692,267.01157)"
             d="m 438.18676,204.48862 -10.67647,-6.91705 -12.34272,3.08052 6.91705,-10.67646 -3.08052,-12.34273 10.67646,6.91705 12.34273,-3.08052 -6.91705,10.67647 z"
             inkscape:randomized="0"
             inkscape:rounded="0"
             inkscape:flatsided="false"
             sodipodi:arg2="1.735945"
             sodipodi:arg1="0.95054684"
             sodipodi:r2="6.6006198"
             sodipodi:r1="16.501549"
             sodipodi:cy="191.06076"
             sodipodi:cx="428.59543"
             sodipodi:sides="4"
             id="path4445"
             style="fill:#ffffff;fill-opacity:1;stroke:none"
             sodipodi:type="star" />
        <path
             sodipodi:type="star"
             style="fill:#ffffff;fill-opacity:1;stroke:none"
             id="path4447"
             sodipodi:sides="4"
             sodipodi:cx="428.59543"
             sodipodi:cy="191.06076"
             sodipodi:r1="16.501549"
             sodipodi:r2="6.6006198"
             sodipodi:arg1="0.95054684"
             sodipodi:arg2="1.735945"
             inkscape:flatsided="false"
             inkscape:rounded="0"
             inkscape:randomized="0"
             d="m 438.18676,204.48862 -10.67647,-6.91705 -12.34272,3.08052 6.91705,-10.67646 -3.08052,-12.34273 10.67646,6.91705 12.34273,-3.08052 -6.91705,10.67647 z"
             transform="matrix(-0.17087647,0.25399253,-0.25399253,-0.17087647,470.94072,366.34823)" />
        <path
             transform="matrix(-0.30062146,0.05777295,-0.05777295,-0.30062146,474.92194,477.38751)"
             d="m 438.18676,204.48862 -10.67647,-6.91705 -12.34272,3.08052 6.91705,-10.67646 -3.08052,-12.34273 10.67646,6.91705 12.34273,-3.08052 -6.91705,10.67647 z"
             inkscape:randomized="0"
             inkscape:rounded="0"
             inkscape:flatsided="false"
             sodipodi:arg2="1.735945"
             sodipodi:arg1="0.95054684"
             sodipodi:r2="6.6006198"
             sodipodi:r1="16.501549"
             sodipodi:cy="191.06076"
             sodipodi:cx="428.59543"
             sodipodi:sides="4"
             id="path4449"
             style="fill:#ffffff;fill-opacity:1;stroke:none"
             sodipodi:type="star" />
        <path
             sodipodi:type="star"
             style="fill:#ffffff;fill-opacity:1;stroke:none"
             id="path4451"
             sodipodi:sides="4"
             sodipodi:cx="428.59543"
             sodipodi:cy="191.06076"
             sodipodi:r1="16.501549"
             sodipodi:r2="6.6006198"
             sodipodi:arg1="0.95054684"
             sodipodi:arg2="1.735945"
             inkscape:flatsided="false"
             inkscape:rounded="0"
             inkscape:randomized="0"
             d="m 438.18676,204.48862 -10.67647,-6.91705 -12.34272,3.08052 6.91705,-10.67646 -3.08052,-12.34273 10.67646,6.91705 12.34273,-3.08052 -6.91705,10.67647 z"
             transform="matrix(-0.18719366,-0.2422179,0.2422179,-0.18719366,298.92032,682.63518)" />
        <path
             transform="matrix(-0.30062146,0.05777295,-0.05777295,-0.30062146,433.74016,614.76258)"
             d="m 438.18676,204.48862 -10.67647,-6.91705 -12.34272,3.08052 6.91705,-10.67646 -3.08052,-12.34273 10.67646,6.91705 12.34273,-3.08052 -6.91705,10.67647 z"
             inkscape:randomized="0"
             inkscape:rounded="0"
             inkscape:flatsided="false"
             sodipodi:arg2="1.735945"
             sodipodi:arg1="0.95054684"
             sodipodi:r2="6.6006198"
             sodipodi:r1="16.501549"
             sodipodi:cy="191.06076"
             sodipodi:cx="428.59543"
             sodipodi:sides="4"
             id="path4453"
             style="fill:#ffffff;fill-opacity:1;stroke:none"
             sodipodi:type="star" />
        <path
             sodipodi:type="star"
             style="fill:#ffffff;fill-opacity:1;stroke:none"
             id="path4455"
             sodipodi:sides="4"
             sodipodi:cx="428.59543"
             sodipodi:cy="191.06076"
             sodipodi:r1="16.501549"
             sodipodi:r2="6.6006198"
             sodipodi:arg1="0.95054684"
             sodipodi:arg2="1.735945"
             inkscape:flatsided="false"
             inkscape:rounded="0"
             inkscape:randomized="0"
             d="m 438.18676,204.48862 -10.67647,-6.91705 -12.34272,3.08052 6.91705,-10.67646 -3.08052,-12.34273 10.67646,6.91705 12.34273,-3.08052 -6.91705,10.67647 z"
             transform="matrix(-0.19389398,-0.23688837,0.23688837,-0.19389398,322.94022,768.60462)" />
        <path
             transform="matrix(-0.30380074,-0.03763096,0.03763096,-0.30380074,334.20394,734.62803)"
             d="m 438.18676,204.48862 -10.67647,-6.91705 -12.34272,3.08052 6.91705,-10.67646 -3.08052,-12.34273 10.67646,6.91705 12.34273,-3.08052 -6.91705,10.67647 z"
             inkscape:randomized="0"
             inkscape:rounded="0"
             inkscape:flatsided="false"
             sodipodi:arg2="1.735945"
             sodipodi:arg1="0.95054684"
             sodipodi:r2="6.6006198"
             sodipodi:r1="16.501549"
             sodipodi:cy="191.06076"
             sodipodi:cx="428.59543"
             sodipodi:sides="4"
             id="path4457"
             style="fill:#ffffff;fill-opacity:1;stroke:none"
             sodipodi:type="star" />
        <path
             transform="matrix(-0.09734187,0.29023358,-0.29023358,-0.09734187,601.24107,362.58135)"
             d="m 438.18676,204.48862 -10.67647,-6.91705 -12.34272,3.08052 6.91705,-10.67646 -3.08052,-12.34273 10.67646,6.91705 12.34273,-3.08052 -6.91705,10.67647 z"
             inkscape:randomized="0"
             inkscape:rounded="0"
             inkscape:flatsided="false"
             sodipodi:arg2="1.735945"
             sodipodi:arg1="0.95054684"
             sodipodi:r2="6.6006198"
             sodipodi:r1="16.501549"
             sodipodi:cy="191.06076"
             sodipodi:cx="428.59543"
             sodipodi:sides="4"
             id="path4459"
             style="fill:#ffffff;fill-opacity:1;stroke:none"
             sodipodi:type="star" />
        <path
             sodipodi:type="star"
             style="fill:#ffffff;fill-opacity:1;stroke:none"
             id="path4461"
             sodipodi:sides="4"
             sodipodi:cx="428.59543"
             sodipodi:cy="191.06076"
             sodipodi:r1="16.501549"
             sodipodi:r2="6.6006198"
             sodipodi:arg1="0.95054684"
             sodipodi:arg2="1.735945"
             inkscape:flatsided="false"
             inkscape:rounded="0"
             inkscape:randomized="0"
             d="m 438.18676,204.48862 -10.67647,-6.91705 -12.34272,3.08052 6.91705,-10.67646 -3.08052,-12.34273 10.67646,6.91705 12.34273,-3.08052 -6.91705,10.67647 z"
             transform="matrix(-0.17087647,0.25399253,-0.25399253,-0.17087647,605.54985,322.09318)" />
        <path
             transform="matrix(-0.22085936,0.21197197,-0.21197197,-0.22085936,701.30738,504.54547)"
             d="m 438.18676,204.48862 -10.67647,-6.91705 -12.34272,3.08052 6.91705,-10.67646 -3.08052,-12.34273 10.67646,6.91705 12.34273,-3.08052 -6.91705,10.67647 z"
             inkscape:randomized="0"
             inkscape:rounded="0"
             inkscape:flatsided="false"
             sodipodi:arg2="1.735945"
             sodipodi:arg1="0.95054684"
             sodipodi:r2="6.6006198"
             sodipodi:r1="16.501549"
             sodipodi:cy="191.06076"
             sodipodi:cx="428.59543"
             sodipodi:sides="4"
             id="path4463"
             style="fill:#ffffff;fill-opacity:1;stroke:none"
             sodipodi:type="star" />
        <path
             sodipodi:type="star"
             style="fill:#ffffff;fill-opacity:1;stroke:none"
             id="path4465"
             sodipodi:sides="4"
             sodipodi:cx="428.59543"
             sodipodi:cy="191.06076"
             sodipodi:r1="16.501549"
             sodipodi:r2="6.6006198"
             sodipodi:arg1="0.95054684"
             sodipodi:arg2="1.735945"
             inkscape:flatsided="false"
             inkscape:rounded="0"
             inkscape:randomized="0"
             d="m 438.18676,204.48862 -10.67647,-6.91705 -12.34272,3.08052 6.91705,-10.67646 -3.08052,-12.34273 10.67646,6.91705 12.34273,-3.08052 -6.91705,10.67647 z"
             transform="matrix(-0.12531849,0.27929599,-0.27929599,-0.12531849,667.6901,466.04174)" />
        <path
             transform="matrix(-0.29978507,0.06196679,-0.06196679,-0.29978507,728.602,612.19067)"
             d="m 438.18676,204.48862 -10.67647,-6.91705 -12.34272,3.08052 6.91705,-10.67646 -3.08052,-12.34273 10.67646,6.91705 12.34273,-3.08052 -6.91705,10.67647 z"
             inkscape:randomized="0"
             inkscape:rounded="0"
             inkscape:flatsided="false"
             sodipodi:arg2="1.735945"
             sodipodi:arg1="0.95054684"
             sodipodi:r2="6.6006198"
             sodipodi:r1="16.501549"
             sodipodi:cy="191.06076"
             sodipodi:cx="428.59543"
             sodipodi:sides="4"
             id="path4467"
             style="fill:#ffffff;fill-opacity:1;stroke:none"
             sodipodi:type="star" />
        <path
             sodipodi:type="star"
             style="fill:#ffffff;fill-opacity:1;stroke:none"
             id="path4469"
             sodipodi:sides="4"
             sodipodi:cx="428.59543"
             sodipodi:cy="191.06076"
             sodipodi:r1="16.501549"
             sodipodi:r2="6.6006198"
             sodipodi:arg1="0.95054684"
             sodipodi:arg2="1.735945"
             inkscape:flatsided="false"
             inkscape:rounded="0"
             inkscape:randomized="0"
             d="m 438.18676,204.48862 -10.67647,-6.91705 -12.34272,3.08052 6.91705,-10.67646 -3.08052,-12.34273 10.67646,6.91705 12.34273,-3.08052 -6.91705,10.67647 z"
             transform="matrix(-0.17087647,0.25399253,-0.25399253,-0.17087647,713.11422,601.14589)" />
    </g>
</svg>
